<?xml version="1.0" encoding="UTF-8" standalone="no"?>
<!DOCTYPE svg PUBLIC "-//W3C//DTD SVG 20010904//EN"
              "http://www.w3.org/TR/2001/REC-SVG-20010904/DTD/svg10.dtd">

<svg xmlns="http://www.w3.org/2000/svg"
     width="1.70667in" height="1.70667in"
     viewBox="0 0 512 512">
  <path id="Auswahl"
        fill="none" stroke="black" stroke-width="1"
        d="M 231.00,10.21
           C 231.00,10.21 271.00,10.21 271.00,10.21
             295.83,10.04 328.96,17.56 352.00,26.80
             382.73,39.13 412.94,58.05 435.96,82.00
             471.73,119.22 495.00,165.93 502.57,217.00
             505.57,237.18 505.23,257.63 505.00,278.00
             505.00,278.00 504.09,288.00 504.09,288.00
             501.13,328.54 487.23,368.05 464.92,402.00
             447.41,428.64 424.37,451.42 398.00,469.26
             364.39,491.98 323.43,506.13 283.00,509.09
             283.00,509.09 273.00,510.00 273.00,510.00
             273.00,510.00 237.00,510.00 237.00,510.00
             217.30,509.77 188.75,503.92 170.00,497.67
             135.25,486.08 100.76,465.07 75.01,439.00
             38.64,402.16 15.01,354.12 7.43,303.00
             4.43,282.82 4.77,262.37 5.00,242.00
             5.00,242.00 5.91,232.00 5.91,232.00
             7.99,203.59 15.42,175.88 27.31,150.00
             54.51,90.76 104.69,45.53 166.00,23.69
             179.98,18.71 198.28,14.26 213.00,12.28
             213.00,12.28 231.00,10.21 231.00,10.21 Z
           M 248.00,26.28
           C 248.00,26.28 229.00,28.28 229.00,28.28
             214.28,30.26 195.98,34.71 182.00,39.69
             120.69,61.53 70.51,106.76 43.31,166.00
             31.42,191.88 23.99,219.59 21.91,248.00
             21.91,248.00 21.00,258.00 21.00,258.00
             20.85,271.08 23.42,288.09 26.00,301.00
             44.88,395.44 119.56,470.12 214.00,489.00
             225.56,491.31 241.32,493.86 253.00,494.00
             266.08,494.15 283.09,491.58 296.00,489.00
             390.44,470.12 465.12,395.44 484.00,301.00
             486.58,288.09 489.15,271.08 489.00,258.00
             488.86,246.32 486.31,230.56 484.00,219.00
             467.71,137.53 411.79,73.12 335.00,42.40
             312.00,33.20 290.48,29.20 266.00,26.83
             259.18,26.17 255.00,25.63 248.00,26.28 Z
           M 245.00,171.00
           C 245.00,171.00 223.33,209.00 223.33,209.00
             223.33,209.00 214.65,225.00 214.65,225.00
             214.65,225.00 209.35,233.00 209.35,233.00
             209.35,233.00 195.59,257.00 195.59,257.00
             195.59,257.00 187.99,271.00 187.99,271.00
             187.99,271.00 173.65,296.00 173.65,296.00
             173.65,296.00 168.95,303.00 168.95,303.00
             168.95,303.00 161.31,317.00 161.31,317.00
             161.31,317.00 153.35,330.00 153.35,330.00
             153.35,330.00 148.14,340.00 148.14,340.00
             148.14,340.00 138.43,356.00 138.43,356.00
             138.43,356.00 128.59,373.00 128.59,373.00
             124.63,379.01 122.25,388.05 114.00,389.38
             107.09,390.49 100.60,383.86 101.62,377.00
             102.41,371.71 110.27,359.76 113.41,355.00
             113.41,355.00 120.43,342.00 120.43,342.00
             120.43,342.00 130.14,326.00 130.14,326.00
             130.14,326.00 135.35,316.00 135.35,316.00
             135.35,316.00 140.65,308.00 140.65,308.00
             140.65,308.00 150.35,290.00 150.35,290.00
             150.35,290.00 155.65,282.00 155.65,282.00
             155.65,282.00 164.33,266.00 164.33,266.00
             164.33,266.00 171.14,255.00 171.14,255.00
             171.14,255.00 176.35,245.00 176.35,245.00
             176.35,245.00 181.65,237.00 181.65,237.00
             181.65,237.00 191.35,219.00 191.35,219.00
             191.35,219.00 196.65,211.00 196.65,211.00
             196.65,211.00 204.23,197.00 204.23,197.00
             204.23,197.00 211.57,185.00 211.57,185.00
             211.57,185.00 217.43,174.00 217.43,174.00
             217.43,174.00 231.26,150.00 231.26,150.00
             234.23,144.40 239.80,137.47 247.00,138.62
             254.46,139.82 257.05,146.37 260.35,152.00
             260.35,152.00 265.65,160.00 265.65,160.00
             265.65,160.00 278.58,183.00 278.58,183.00
             278.58,183.00 288.01,200.00 288.01,200.00
             288.01,200.00 296.58,214.00 296.58,214.00
             296.58,214.00 302.35,225.00 302.35,225.00
             302.35,225.00 307.65,233.00 307.65,233.00
             307.65,233.00 316.33,249.00 316.33,249.00
             316.33,249.00 321.54,257.00 321.54,257.00
             321.54,257.00 328.43,270.00 328.43,270.00
             328.43,270.00 337.58,285.00 337.58,285.00
             337.58,285.00 343.35,296.00 343.35,296.00
             343.35,296.00 348.65,304.00 348.65,304.00
             348.65,304.00 358.35,322.00 358.35,322.00
             358.35,322.00 365.24,333.00 365.24,333.00
             365.24,333.00 382.75,364.00 382.75,364.00
             384.71,367.92 388.10,373.55 387.38,378.00
             386.46,383.70 380.84,388.32 375.00,387.38
             367.29,386.14 364.91,377.95 361.69,372.00
             361.69,372.00 351.43,355.00 351.43,355.00
             351.43,355.00 345.65,344.00 345.65,344.00
             345.65,344.00 337.74,331.00 337.74,331.00
             337.74,331.00 330.05,317.00 330.05,317.00
             330.05,317.00 325.35,310.00 325.35,310.00
             325.35,310.00 320.14,300.00 320.14,300.00
             320.14,300.00 310.43,284.00 310.43,284.00
             310.43,284.00 304.13,272.00 304.13,272.00
             304.13,272.00 298.33,263.00 298.33,263.00
             298.33,263.00 289.65,247.00 289.65,247.00
             289.65,247.00 284.35,239.00 284.35,239.00
             284.35,239.00 278.58,228.00 278.58,228.00
             278.58,228.00 269.43,213.00 269.43,213.00
             269.43,213.00 262.54,200.00 262.54,200.00
             262.54,200.00 257.33,192.00 257.33,192.00
             253.34,185.11 249.96,177.10 245.00,171.00 Z" />
</svg>
